<?xml version="1.0" encoding="UTF-8"?>
<svg id="Layer_1" data-name="Layer 1" xmlns="http://www.w3.org/2000/svg" viewBox="0 0 375.09 153.35">
  <defs>
    <style>
      .cls-1 {
        fill: #0f4c75;
      }

      .cls-2 {
        fill: #faa41a;
      }
    </style>
  </defs>
  <path class="cls-2" d="M223.39,130.19c-.81,0-1.43.31-1.86.92-.43.62-.64,1.5-.64,2.66s.21,2.05.64,2.66c.43.62,1.05.92,1.86.92s1.42-.31,1.85-.92c.43-.62.64-1.5.64-2.66s-.22-2.05-.64-2.66c-.43-.62-1.04-.92-1.85-.92Z"/>
  <path class="cls-2" d="M241.98,130.6c-.31-.2-.77-.3-1.4-.3h-.66v2.75h.66c1.24,0,1.86-.46,1.86-1.38,0-.51-.15-.87-.46-1.07Z"/>
  <path class="cls-2" d="M257.38,135.02h2.61c-.53-1.96-.97-3.31-1.31-4.04-.34.73-.77,2.08-1.31,4.04Z"/>
  <path class="cls-2" d="M171.01,130.19c-.81,0-1.43.31-1.86.92-.43.62-.64,1.5-.64,2.66s.21,2.05.64,2.66c.43.62,1.05.92,1.86.92s1.42-.31,1.85-.92c.43-.62.64-1.5.64-2.66s-.22-2.05-.64-2.66c-.43-.62-1.04-.92-1.85-.92Z"/>
  <path class="cls-2" d="M189.59,130.6c-.31-.2-.77-.3-1.4-.3h-.66v2.75h.66c1.24,0,1.86-.46,1.86-1.38,0-.51-.15-.87-.46-1.07Z"/>
  <path class="cls-2" d="M205.46,130.3h-.92v3.4h.92c.61,0,1.07-.13,1.38-.39.3-.26.45-.69.45-1.3s-.15-1.05-.45-1.31c-.3-.26-.76-.39-1.38-.39Z"/>
  <path class="cls-2" d="M301.53,130.19c-.81,0-1.43.31-1.86.92-.43.62-.64,1.5-.64,2.66s.21,2.05.64,2.66c.43.62,1.05.92,1.86.92s1.42-.31,1.85-.92c.43-.62.64-1.5.64-2.66s-.22-2.05-.64-2.66c-.43-.62-1.04-.92-1.85-.92Z"/>
  <path class="cls-2" d="M375.09,124.62H93.81c-3.55,7.04-8.07,13.34-13.55,18.86h294.83v-18.86ZM155.39,140.08c-1.85,0-3.28-.56-4.3-1.69-1.02-1.13-1.53-2.65-1.53-4.56s.52-3.5,1.56-4.64c1.04-1.14,2.52-1.72,4.45-1.72.96,0,1.94.21,2.93.63l-.68,2.61c-.96-.35-1.7-.52-2.21-.52-.99,0-1.71.3-2.17.91-.46.6-.69,1.51-.69,2.72s.22,2.09.67,2.67c.45.59,1.15.88,2.12.88.81,0,1.64-.23,2.49-.7l.59,2.65c-.93.51-2,.77-3.22.77ZM175.15,138.36c-1.02,1.15-2.4,1.72-4.14,1.72s-3.14-.57-4.16-1.71c-1.02-1.14-1.53-2.67-1.53-4.59s.51-3.44,1.53-4.59c1.02-1.14,2.41-1.72,4.16-1.72s3.12.57,4.14,1.72c1.02,1.15,1.53,2.68,1.53,4.58s-.51,3.43-1.53,4.58ZM190.73,139.87l-1.44-3.37c-.23-.57-.66-.86-1.29-.86h-.47v4.23h-3.1v-12.19h3.9c1.52,0,2.72.33,3.59.98.87.66,1.31,1.56,1.31,2.72,0,.95-.19,1.67-.58,2.16-.39.49-.91.85-1.56,1.1.58.23,1.05.78,1.41,1.64l1.51,3.59h-3.27ZM209.15,135.16c-.88.76-2.09,1.14-3.62,1.14h-.99v3.57h-3.08v-12.19h4.07c1.53,0,2.74.38,3.62,1.15.88.77,1.32,1.82,1.32,3.17s-.44,2.4-1.32,3.16ZM227.54,138.36c-1.02,1.15-2.4,1.72-4.14,1.72s-3.14-.57-4.16-1.71c-1.02-1.14-1.53-2.67-1.53-4.59s.51-3.44,1.53-4.59c1.02-1.14,2.41-1.72,4.16-1.72s3.12.57,4.14,1.72c1.02,1.15,1.53,2.68,1.53,4.58s-.51,3.43-1.53,4.58ZM243.12,139.87l-1.44-3.37c-.23-.57-.66-.86-1.29-.86h-.47v4.23h-3.1v-12.19h3.9c1.52,0,2.72.33,3.59.98.87.66,1.31,1.56,1.31,2.72,0,.95-.19,1.67-.58,2.16-.39.49-.91.85-1.56,1.1.58.23,1.05.78,1.41,1.64l1.52,3.59h-3.27ZM261.23,139.87l-.56-2.25h-3.97l-.56,2.25h-3.17c.56-2.15,1.21-4.35,1.95-6.61.74-2.26,1.46-4.12,2.16-5.58h3.2c.7,1.47,1.42,3.34,2.18,5.61.75,2.26,1.4,4.46,1.95,6.58h-3.19ZM277.52,130.3h-3.01v9.58h-3.08v-9.58h-3.01v-2.61h9.11v2.61ZM288.09,139.87h-3.08v-12.19h3.08v12.19ZM305.68,138.36c-1.02,1.15-2.4,1.72-4.14,1.72s-3.14-.57-4.16-1.71c-1.02-1.14-1.53-2.67-1.53-4.59s.51-3.44,1.53-4.59c1.02-1.14,2.41-1.72,4.16-1.72s3.12.57,4.14,1.72c1.02,1.15,1.53,2.68,1.53,4.58s-.51,3.43-1.53,4.58ZM325.28,139.87h-3c-.67-.93-1.18-1.63-1.52-2.12-.34-.48-.81-1.18-1.4-2.1s-1.14-1.85-1.65-2.79c.05.48.07,1.19.07,2.14v4.86h-2.82v-12.19h2.98c1.25,2.59,2.79,5.22,4.6,7.89-.05-.43-.07-.92-.07-1.46v-6.42h2.82v12.19Z"/>
  <g>
    <polygon class="cls-1" points="75.27 44.89 74.83 44.89 55.07 73.57 74.32 73.58 75.27 44.89"/>
    <path class="cls-1" d="M73.74,95.24h-33.48s-9.99,14.62-9.99,14.62H4.55c6.69,20.4,20.77,34.9,42.25,43.49,6.76-2.7,12.78-5.99,18.07-9.87,7.14-5.22,12.94-11.51,17.41-18.86,2.75-4.51,5.01-9.42,6.75-14.74h-15.79s.5-14.64.5-14.64Z"/>
    <path class="cls-1" d="M0,78.48c0,11.21,1.41,21.29,4.2,30.26L71.9,14.2h21.69V0H0v78.48Z"/>
    <path class="cls-1" d="M156.31,91.89c-1.87,2.44-4.6,2.59-11.35,2.59-9.2,0-12.07-.46-13.79-2.59-1.72-2.29-2.73-9.75-2.73-27.42s1.01-25.29,2.73-27.58c1.72-2.13,4.6-2.59,13.79-2.59,6.47,0,9.2.15,10.92,2.59,2.01,2.74,2.01,9.29,2.01,13.56h25.29c-.58-11.43-1.58-22.4-9.05-30.32-7.33-8.07-16.81-8.68-29.46-8.68s-24.28.3-32.91,9.14c-5.04,5.09-7.23,13.25-8.18,22.33-.73,6.97-.73,14.47-.73,21.55,0,6.57.01,13.47.59,19.97.86,9.64,3,18.39,8.32,23.76,8.62,8.84,19.97,9.14,32.91,9.14s19.69-.76,26.73-5.94c8.77-6.4,11.64-15.39,12.36-33.98h-25.43c0,4.27,0,11.88-2.01,14.47Z"/>
    <polygon class="cls-1" points="244.72 69.65 244.14 69.65 218.85 13.58 191.41 13.58 191.41 115.2 216.56 115.2 216.56 56.7 222.73 74.37 233.94 100.57 254.92 100.57 266.13 74.37 272.31 56.7 272.31 115.2 297.45 115.2 297.45 13.58 270.01 13.58 244.72 69.65"/>
    <polygon class="cls-1" points="330.11 92.5 330.11 74.83 369.91 74.83 369.91 52.43 330.11 52.43 330.11 36.13 373.94 36.13 373.94 13.58 305.11 13.58 305.11 115.2 375.09 115.2 375.09 92.5 330.11 92.5"/>
  </g>
</svg>